# xmcd CD database file
#
# Track frame offsets:
#	150
#	20699
#	41113
#	56925
#	76080
#	95859
#	116393
#	139530
#	158795
#	181094
#	206086
#	224892
#
# Disc length: 3279 seconds
#
# Revision: 2
# Processed by: cddbd v1.5.2PL0 Copyright (c) Steve Scherf et al.
# Submitted via: CDex 1.70beta2
#
DISCID=af0ccd0c
DTITLE=Mike Goudreau Band - The Grass Ain't Greener
DYEAR=2006
DGENRE=Blues
TTITLE0=Too Good to Be True
TTITLE1=Have You Been Cheatin' On Me
TTITLE2=You Should Have Known Better
TTITLE3=Keep on Drinkin'
TTITLE4=Baby Please Give In
TTITLE5=Mecury Blues
TTITLE6=I Had Me a Woman
TTITLE7=Give it to the Lord
TTITLE8=The Grass Ain't Greener
TTITLE9=Dear John Song
TTITLE10=Oh! Darling
TTITLE11=Caldonia
EXTD=YEAR: 2006
EXTT0=
EXTT1=
EXTT2=
EXTT3=
EXTT4=
EXTT5=
EXTT6=
EXTT7=
EXTT8=
EXTT9=
EXTT10=
EXTT11=
PLAYORDER=
